{
	"asset":{
		"generator":"Khronos glTF Blender I/O v4.2.60",
		"version":"2.0"
	},
	"extensionsUsed":[
		"KHR_lights_punctual"
	],
	"extensionsRequired":[
		"KHR_lights_punctual"
	],
	"extensions":{
		"KHR_lights_punctual":{
			"lights":[
				{
					"color":[
						1,
						0.9894697666168213,
						0.6498069167137146
					],
					"intensity":54351.41306588226,
					"type":"point",
					"name":"Light"
				}
			]
		}
	},
	"scene":0,
	"scenes":[
		{
			"name":"Scene",
			"nodes":[
				0,
				1,
				3,
				4
			]
		}
	],
	"nodes":[
		{
			"extensions":{
				"KHR_lights_punctual":{
					"light":0
				}
			},
			"name":"Light",
			"rotation":[
				-0.28416624665260315,
				0.7269423007965088,
				0.34203386306762695,
				0.5232754945755005
			],
			"scale":[
				0.10000002384185791,
				0.10000001639127731,
				0.10000001639127731
			],
			"translation":[
				3.584429979324341,
				2.557962417602539,
				-0.05059826374053955
			]
		},
		{
			"camera":0,
			"name":"Camera",
			"rotation":[
				-0.35015931725502014,
				0.33140915632247925,
				0.13403478264808655,
				0.8657892942428589
			],
			"translation":[
				2.1200408935546875,
				1.678334355354309,
				1.247441053390503
			]
		},
		{
			"mesh":0,
			"name":"icing"
		},
		{
			"children":[
				2
			],
			"mesh":1,
			"name":"donut",
			"scale":[
				0.10000002384185791,
				0.10000002384185791,
				0.10000002384185791
			],
			"translation":[
				1.5390995740890503,
				0.9328305721282959,
				0.5581052899360657
			]
		},
		{
			"mesh":2,
			"name":"Plane",
			"scale":[
				0.5009637475013733,
				0.5009637475013733,
				0.5009637475013733
			],
			"translation":[
				1.5390995740890503,
				0.907830536365509,
				0.5581052899360657
			]
		}
	],
	"cameras":[
		{
			"name":"Camera",
			"perspective":{
				"aspectRatio":1.7777777777777777,
				"yfov":0.804716426492561,
				"zfar":100,
				"znear":0.10000000149011612
			},
			"type":"perspective"
		}
	],
	"materials":[
		{
			"doubleSided":true,
			"name":"Material.001",
			"pbrMetallicRoughness":{
				"baseColorFactor":[
					0.8008760809898376,
					0.2015874683856964,
					0.719054102897644,
					1
				],
				"metallicFactor":0,
				"roughnessFactor":0.31410256028175354
			}
		},
		{
			"doubleSided":true,
			"name":"Material.002",
			"pbrMetallicRoughness":{
				"baseColorTexture":{
					"index":0
				},
				"metallicFactor":0,
				"roughnessFactor":0.5
			}
		},
		{
			"doubleSided":true,
			"name":"Material.003",
			"normalTexture":{
				"index":1
			},
			"pbrMetallicRoughness":{
				"baseColorTexture":{
					"index":2
				},
				"metallicFactor":0,
				"metallicRoughnessTexture":{
					"index":3
				}
			}
		}
	],
	"meshes":[
		{
			"name":"Torus.001",
			"primitives":[
				{
					"attributes":{
						"POSITION":0,
						"NORMAL":1,
						"TEXCOORD_0":2
					},
					"indices":3,
					"material":0
				}
			]
		},
		{
			"name":"Torus.003",
			"primitives":[
				{
					"attributes":{
						"POSITION":4,
						"NORMAL":5,
						"TEXCOORD_0":6
					},
					"indices":7,
					"material":1
				}
			]
		},
		{
			"name":"Plane",
			"primitives":[
				{
					"attributes":{
						"POSITION":8,
						"NORMAL":9,
						"TEXCOORD_0":10
					},
					"indices":11,
					"material":2
				}
			]
		}
	],
	"textures":[
		{
			"sampler":0,
			"source":0
		},
		{
			"sampler":0,
			"source":1
		},
		{
			"sampler":0,
			"source":2
		},
		{
			"sampler":0,
			"source":3
		}
	],
	"images":[
		{
			"mimeType":"image/png",
			"name":"donut base",
			"uri":"donut%20base.png"
		},
		{
			"mimeType":"image/jpeg",
			"name":"Poliigon_StoneQuartzite_8060_Normal",
			"uri":"Poliigon_StoneQuartzite_8060_Normal.jpg"
		},
		{
			"mimeType":"image/jpeg",
			"name":"Poliigon_StoneQuartzite_8060_BaseColor",
			"uri":"Poliigon_StoneQuartzite_8060_BaseColor.jpg"
		},
		{
			"mimeType":"image/png",
			"name":"Poliigon_StoneQuartzite_8060_Roughness",
			"uri":"Poliigon_StoneQuartzite_8060_Roughness.png"
		}
	],
	"accessors":[
		{
			"bufferView":0,
			"componentType":5126,
			"count":3225,
			"max":[
				0.5773548483848572,
				0.29279670119285583,
				0.5886683464050293
			],
			"min":[
				-0.6085778474807739,
				-0.10394420474767685,
				-0.5837673544883728
			],
			"type":"VEC3"
		},
		{
			"bufferView":1,
			"componentType":5126,
			"count":3225,
			"type":"VEC3"
		},
		{
			"bufferView":2,
			"componentType":5126,
			"count":3225,
			"type":"VEC2"
		},
		{
			"bufferView":3,
			"componentType":5123,
			"count":18432,
			"type":"SCALAR"
		},
		{
			"bufferView":4,
			"componentType":5126,
			"count":429,
			"max":[
				0.5939939022064209,
				0.3060053586959839,
				0.6007459759712219
			],
			"min":[
				-0.6232834458351135,
				-0.25,
				-0.5963097810745239
			],
			"type":"VEC3"
		},
		{
			"bufferView":5,
			"componentType":5126,
			"count":429,
			"type":"VEC3"
		},
		{
			"bufferView":6,
			"componentType":5126,
			"count":429,
			"type":"VEC2"
		},
		{
			"bufferView":7,
			"componentType":5123,
			"count":2304,
			"type":"SCALAR"
		},
		{
			"bufferView":8,
			"componentType":5126,
			"count":4,
			"max":[
				1,
				0,
				1
			],
			"min":[
				-1,
				0,
				-1
			],
			"type":"VEC3"
		},
		{
			"bufferView":9,
			"componentType":5126,
			"count":4,
			"type":"VEC3"
		},
		{
			"bufferView":10,
			"componentType":5126,
			"count":4,
			"type":"VEC2"
		},
		{
			"bufferView":11,
			"componentType":5123,
			"count":6,
			"type":"SCALAR"
		}
	],
	"bufferViews":[
		{
			"buffer":0,
			"byteLength":38700,
			"byteOffset":0,
			"target":34962
		},
		{
			"buffer":0,
			"byteLength":38700,
			"byteOffset":38700,
			"target":34962
		},
		{
			"buffer":0,
			"byteLength":25800,
			"byteOffset":77400,
			"target":34962
		},
		{
			"buffer":0,
			"byteLength":36864,
			"byteOffset":103200,
			"target":34963
		},
		{
			"buffer":0,
			"byteLength":5148,
			"byteOffset":140064,
			"target":34962
		},
		{
			"buffer":0,
			"byteLength":5148,
			"byteOffset":145212,
			"target":34962
		},
		{
			"buffer":0,
			"byteLength":3432,
			"byteOffset":150360,
			"target":34962
		},
		{
			"buffer":0,
			"byteLength":4608,
			"byteOffset":153792,
			"target":34963
		},
		{
			"buffer":0,
			"byteLength":48,
			"byteOffset":158400,
			"target":34962
		},
		{
			"buffer":0,
			"byteLength":48,
			"byteOffset":158448,
			"target":34962
		},
		{
			"buffer":0,
			"byteLength":32,
			"byteOffset":158496,
			"target":34962
		},
		{
			"buffer":0,
			"byteLength":12,
			"byteOffset":158528,
			"target":34963
		}
	],
	"samplers":[
		{
			"magFilter":9729,
			"minFilter":9987
		}
	],
	"buffers":[
		{
			"byteLength":158540,
			"uri":"donut1.bin"
		}
	]
}
